<svg width="100" height="100" fill="none" xmlns="http://www.w3.org/2000/svg">
    <rect opacity=".6" x="21" y="22" width="57" height="57" rx="5" stroke="#BDBCBF" stroke-width="6"/>
    <path opacity=".6" d="M33.25 41.313h32.5c.625 0 1.25-.547 1.25-1.25v-3.126c0-.624-.625-1.25-1.25-1.25h-32.5c-.703 0-1.25.626-1.25 1.25v3.126c0 .703.547 1.25 1.25 1.25zm0 12.5h32.5c.625 0 1.25-.547 1.25-1.25v-3.126c0-.624-.625-1.25-1.25-1.25h-32.5c-.703 0-1.25.626-1.25 1.25v3.126c0 .703.547 1.25 1.25 1.25zm0 12.5h32.5c.625 0 1.25-.547 1.25-1.25v-3.126c0-.624-.625-1.25-1.25-1.25h-32.5c-.703 0-1.25.626-1.25 1.25v3.126c0 .703.547 1.25 1.25 1.25z" fill="#BDBCBF"/>
    <path fill-rule="evenodd" clip-rule="evenodd" d="m63.996 53.223.002.001c.364.364.846.585 1.37.585.523 0 1.006-.221 1.37-.586l23.438-23.438c.39-.39.527-.905.527-1.341 0-.445-.14-.926-.453-1.319l-.04-.05-2.274-2.195c-.76-.877-2.052-.741-2.768-.024L65.332 44.691l-6.834-6.905-.045-.036a2.121 2.121 0 0 0-1.318-.454c-.437 0-.953.138-1.342.527l-2.266 2.266c-.39.39-.527.905-.527 1.342 0 .444.14.925.453 1.318l.036.044 10.507 10.429z" fill="#4BDB9B"/>
</svg>
